<svg width="291" height="61" viewBox="0 0 291 61" fill="none" xmlns="http://www.w3.org/2000/svg">
<path d="M134.54 59.23C132.058 59.23 130.04 57.2116 130.04 54.73V6.5C130.04 4.01843 132.058 2 134.54 2H284.5C286.982 2 289 4.01843 289 6.5V54.73C289 57.2116 286.982 59.23 284.5 59.23H134.54Z" fill="white" stroke="black" stroke-width="3"/>
<path d="M116.02 6.5V59.23H2V6.5C2 4.01843 4.01843 2 6.5 2H111.52C114.002 2 116.02 4.01843 116.02 6.5Z" fill="white" stroke="black" stroke-width="3"/>
<path d="M35.8401 44.1398V20.5798H27.8901V17.2798H47.8201V20.5798H39.9101V44.1398H35.8401Z" fill="black"/>
<path d="M54.9003 44.5198C53.2903 44.5198 51.9503 44.2498 50.9103 43.7098C49.8603 43.1698 49.0803 42.4598 48.5703 41.5798C48.0603 40.6998 47.8003 39.7298 47.8003 38.6798C47.8003 36.8398 48.5203 35.3798 49.9503 34.2998C51.3803 33.2198 53.4303 32.6898 56.1003 32.6898H61.0903V32.3398C61.0903 30.8598 60.6903 29.7398 59.8803 28.9998C59.0703 28.2598 58.0303 27.8898 56.7503 27.8898C55.6203 27.8898 54.6403 28.1698 53.8103 28.7198C52.9803 29.2698 52.4703 30.0798 52.2903 31.1598H48.2203C48.3503 29.7798 48.8203 28.5898 49.6203 27.6098C50.4303 26.6198 51.4503 25.8698 52.6903 25.3398C53.9303 24.8198 55.3003 24.5498 56.7803 24.5498C59.4403 24.5498 61.5003 25.2498 62.9603 26.6398C64.4203 28.0398 65.1503 29.9398 65.1503 32.3398V44.1298H61.6203L61.2703 40.7898C60.7303 41.8398 59.9503 42.7198 58.9303 43.4398C57.9003 44.1598 56.5603 44.5198 54.9003 44.5198ZM55.7003 41.2198C56.8003 41.2198 57.7303 40.9598 58.4803 40.4298C59.2303 39.9098 59.8203 39.2098 60.2503 38.3398C60.6703 37.4698 60.9303 36.5098 61.0403 35.4598H56.5103C54.9003 35.4598 53.7503 35.7398 53.0703 36.2998C52.3903 36.8598 52.0503 37.5698 52.0503 38.4098C52.0503 39.2798 52.3803 39.9698 53.0303 40.4598C53.6903 40.9698 54.5803 41.2198 55.7003 41.2198Z" fill="black"/>
<path d="M80.6301 44.5198C79.1401 44.5198 77.8302 44.2298 76.6902 43.6398C75.5502 43.0498 74.6502 42.2198 73.9802 41.1398L73.5602 44.1398H69.9102V17.2798H73.9802V27.9698C74.5902 27.0698 75.4401 26.2798 76.5201 25.5898C77.6001 24.8998 78.9802 24.5498 80.6702 24.5498C82.5102 24.5498 84.1402 24.9898 85.5502 25.8598C86.9602 26.7298 88.0702 27.9198 88.8702 29.4298C89.6802 30.9398 90.0802 32.6598 90.0802 34.5798C90.0802 36.4998 89.6802 38.2098 88.8702 39.7098C88.0602 41.2098 86.9602 42.3898 85.5502 43.2398C84.1402 44.0898 82.5001 44.5198 80.6301 44.5198ZM79.9402 40.9898C81.6802 40.9898 83.1102 40.3898 84.2402 39.1998C85.3702 38.0098 85.9302 36.4498 85.9302 34.5298C85.9302 33.2798 85.6702 32.1598 85.1602 31.1898C84.6502 30.2198 83.9402 29.4598 83.0502 28.8998C82.1502 28.3498 81.1202 28.0698 79.9402 28.0698C78.2002 28.0698 76.7702 28.6698 75.6602 29.8798C74.5502 31.0798 73.9902 32.6298 73.9902 34.5298C73.9902 36.4498 74.5502 38.0098 75.6602 39.1998C76.7702 40.3898 78.2002 40.9898 79.9402 40.9898Z" fill="black"/>
<path d="M157.47 44.14V17.27H162.26L171.34 35.13L180.38 17.27H185.17V44.13H181.11V24.29L172.91 40.27H169.77L161.53 24.33V44.14H157.47Z" fill="black"/>
<path d="M196.47 44.6002C194.86 44.6002 193.53 44.3302 192.48 43.8002C191.43 43.2602 190.65 42.5502 190.14 41.6702C189.63 40.7902 189.37 39.8202 189.37 38.7802C189.37 36.9402 190.08 35.4802 191.52 34.4102C192.95 33.3402 194.99 32.8002 197.65 32.8002H202.63V32.4602C202.63 30.9802 202.23 29.8702 201.42 29.1302C200.62 28.3902 199.57 28.0202 198.3 28.0202C197.18 28.0202 196.2 28.2902 195.37 28.8402C194.54 29.3902 194.03 30.2002 193.86 31.2702H189.8C189.93 29.8902 190.39 28.7102 191.2 27.7302C192 26.7502 193.03 25.9902 194.27 25.4702C195.51 24.9502 196.87 24.6802 198.35 24.6802C201.01 24.6802 203.06 25.3802 204.52 26.7702C205.98 28.1602 206.7 30.0602 206.7 32.4602V44.1502H203.17L202.83 40.8902C202.29 41.9402 201.51 42.8202 200.49 43.5302C199.47 44.2402 198.13 44.6002 196.47 44.6002ZM197.27 41.3002C198.37 41.3002 199.29 41.0402 200.05 40.5102C200.8 39.9902 201.39 39.2902 201.81 38.4202C202.23 37.5502 202.49 36.5902 202.6 35.5502H198.08C196.47 35.5502 195.33 35.8302 194.65 36.3902C193.97 36.9502 193.63 37.6502 193.63 38.5002C193.63 39.3702 193.96 40.0502 194.61 40.5502C195.26 41.0502 196.15 41.3002 197.27 41.3002Z" fill="black"/>
<path d="M211.18 44.1398V17.2798H215.24V32.9898L222.52 25.1298H227.39L219.3 33.7498L228.57 44.1298H223.44L215.24 34.3998V44.1298H211.18V44.1398Z" fill="black"/>
<path d="M238.45 44.5999C236.58 44.5999 234.93 44.1799 233.49 43.3499C232.05 42.5199 230.92 41.3599 230.1 39.8799C229.28 38.3999 228.87 36.6699 228.87 34.7099C228.87 32.7199 229.27 30.9699 230.08 29.4599C230.88 27.9499 232.01 26.7799 233.45 25.9299C234.89 25.0899 236.57 24.6699 238.49 24.6699C240.35 24.6699 241.98 25.0899 243.36 25.9199C244.74 26.7499 245.81 27.8599 246.58 29.2299C247.35 30.6099 247.73 32.1299 247.73 33.7899C247.73 34.0499 247.72 34.3199 247.71 34.6099C247.7 34.8999 247.68 35.2299 247.65 35.5899H232.86C232.99 37.4299 233.59 38.8299 234.68 39.7899C235.77 40.7499 237.02 41.2299 238.45 41.2299C239.6 41.2299 240.56 40.9699 241.34 40.4399C242.12 39.9199 242.7 39.2099 243.08 38.3099H247.14C246.63 40.0999 245.61 41.5899 244.09 42.7899C242.58 43.9999 240.69 44.5999 238.45 44.5999ZM238.45 27.9999C237.1 27.9999 235.9 28.3999 234.85 29.2099C233.8 30.0099 233.16 31.2199 232.93 32.8299H243.66C243.58 31.3499 243.06 30.1699 242.09 29.2999C241.11 28.4399 239.9 27.9999 238.45 27.9999Z" fill="black"/>
<path d="M251.45 44.1399V25.1299H255.09L255.43 28.7299C256.09 27.4799 257.02 26.4899 258.21 25.7599C259.4 25.0299 260.83 24.6699 262.52 24.6699V28.9199H261.41C260.29 28.9199 259.28 29.1099 258.4 29.4799C257.52 29.8499 256.82 30.4799 256.29 31.3599C255.77 32.2399 255.5 33.4599 255.5 35.0199V44.1399H251.45Z" fill="black"/>
</svg>
